<svg width="42" height="42" viewBox="0 0 42 42" fill="none" xmlns="http://www.w3.org/2000/svg">
<path fill-rule="evenodd" clip-rule="evenodd" d="M8.75 35C7.35761 35 6.02226 34.4469 5.03769 33.4623C4.05312 32.4777 3.5 31.1424 3.5 29.75V12.25C3.5 10.8576 4.05312 9.52226 5.03769 8.53769C6.02226 7.55312 7.35761 7 8.75 7H33.25C34.6424 7 35.9777 7.55312 36.9623 8.53769C37.9469 9.52226 38.5 10.8576 38.5 12.25V29.75C38.5 31.1424 37.9469 32.4777 36.9623 33.4623C35.9777 34.4469 34.6424 35 33.25 35H8.75ZM13.3438 14.385C13.1655 14.2328 12.9585 14.1179 12.7349 14.0473C12.5114 13.9766 12.276 13.9515 12.0426 13.9736C11.8093 13.9957 11.5827 14.0644 11.3764 14.1757C11.1701 14.287 10.9883 14.4386 10.8417 14.6215C10.6951 14.8045 10.5868 15.015 10.5231 15.2406C10.4595 15.4662 10.4418 15.7023 10.4711 15.9349C10.5005 16.1674 10.5762 16.3917 10.6939 16.5945C10.8116 16.7972 10.9688 16.9742 11.1562 17.115L17.7188 22.3668C18.6499 23.1123 19.8072 23.5185 21 23.5185C22.1928 23.5185 23.3501 23.1123 24.2812 22.3668L30.8438 17.1168C31.0232 16.9731 31.1727 16.7955 31.2835 16.5942C31.3944 16.3928 31.4645 16.1715 31.4898 15.943C31.5152 15.7146 31.4953 15.4833 31.4313 15.2625C31.3673 15.0418 31.2604 14.8357 31.1168 14.6562C30.9731 14.4768 30.7955 14.3273 30.5942 14.2165C30.3928 14.1056 30.1715 14.0355 29.943 14.0102C29.7146 13.9848 29.4833 14.0047 29.2625 14.0687C29.0418 14.1327 28.8357 14.2396 28.6562 14.3832L22.0938 19.6332C21.7834 19.8818 21.3976 20.0172 21 20.0172C20.6024 20.0172 20.2166 19.8818 19.9062 19.6332L13.3438 14.385Z" fill="white"/>
</svg>
