<svg width="40" height="40" viewBox="0 0 40 40" fill="none" xmlns="http://www.w3.org/2000/svg">
<path d="M32.05 25.4333L27.8167 24.95C27.3189 24.8915 26.8144 24.9466 26.3409 25.1112C25.8675 25.2757 25.4376 25.5454 25.0833 25.9L22.0167 28.9667C17.2853 26.5604 13.4396 22.7147 11.0333 17.9833L14.1167 14.9C14.8333 14.1833 15.1833 13.1833 15.0667 12.1667L14.5833 7.96667C14.4888 7.15362 14.0987 6.40372 13.4871 5.85974C12.8755 5.31576 12.0852 5.01569 11.2667 5.01666H8.38334C6.50001 5.01666 4.93334 6.58333 5.05001 8.46666C5.93334 22.7 17.3167 34.0667 31.5333 34.95C33.4167 35.0667 34.9833 33.5 34.9833 31.6167V28.7333C35 27.05 33.7333 25.6333 32.05 25.4333Z" fill="white"/>
</svg>
